<?xml version='1.0' encoding='utf-8'?>
<svg xmlns="http://www.w3.org/2000/svg" width="196.427mm" height="196.427mm" version="1.1" style="shape-rendering:geometricPrecision; text-rendering:geometricPrecision; image-rendering:optimizeQuality; fill-rule:evenodd; clip-rule:evenodd" viewBox="0 0 19643 19643"> <defs> <style type="text/css">  .fil2 {fill:black} .fil0 {fill:#FCDA00} .fil1 {fill:black;fill-rule:nonzero}  </style> </defs> <g id="Layer_x0020_1"> <metadata id="CorelCorpID_0Corel-Layer"/> <path class="fil0" d="M593 0l18457 0c326,0 593,267 593,593l0 18457c0,326 -267,593 -593,593l-18457 0c-326,0 -593,-267 -593,-593l0 -18457c0,-326 267,-593 593,-593z"/> <path class="fil1" d="M1214 492l17214 0c199,0 380,82 510,212 131,131 212,312 212,510l0 17214c0,199 -81,380 -212,510 -130,131 -311,212 -510,212l-17214 0c-198,0 -379,-81 -510,-212 -130,-130 -212,-311 -212,-510l0 -17214c0,-198 82,-379 212,-510 131,-130 312,-212 510,-212zm17214 339l-17214 0c-105,0 -201,43 -270,113 -70,69 -113,165 -113,270l0 17214c0,106 43,201 113,271 69,69 165,113 270,113l17214 0c106,0 201,-44 271,-113 69,-70 113,-165 113,-271l0 -17214c0,-105 -44,-201 -113,-270 -70,-70 -165,-113 -271,-113z"/> <path class="fil2" d="M7104 7694c673,0 1242,602 1270,1344 27,742 -496,1344 -1170,1344 -673,0 -1242,-602 -1270,-1344 -27,-742 496,-1344 1170,-1344zm14 392c478,0 881,426 900,952 20,526 -351,953 -828,953 -478,0 -881,-427 -900,-953 -20,-526 351,-952 828,-952zm-1853 -1573l2488 235 14 25c128,234 246,478 361,720l-2290 -221c-140,-13 -254,81 -254,224l0 2521c0,143 114,277 254,297l2515 362c140,20 254,-81 254,-224l0 -1922c68,148 135,297 206,442 46,94 100,203 166,285 16,20 33,39 54,54 75,57 173,53 264,35l0 1692c0,204 -167,347 -371,319l-3661 -515c-204,-29 -371,-219 -371,-423l0 -3588c0,-203 167,-337 371,-318zm-472 2450l0 -2132c0,-266 222,-443 481,-419l2417 228c-42,-67 -90,-131 -147,-178 -76,-62 -168,-93 -263,-115 -169,-40 -358,-56 -531,-71 -477,-40 -958,-65 -1437,-88 -496,-25 -992,-46 -1488,-66 -214,-9 -428,-16 -642,-27 -39,-2 -78,-4 -116,-8 -26,-3 -51,-10 -71,-22 -23,33 -41,72 -53,117 -22,85 -22,193 10,330 31,138 95,305 355,727 260,422 717,1097 991,1431 274,335 366,328 475,298 6,-1 12,-3 19,-5zm-964 -2943c739,30 2164,90 2930,155 765,66 871,136 1097,549 226,413 572,1168 794,1654 222,487 321,706 408,815 87,110 163,110 1140,-261 978,-370 2856,-1111 3958,-1554 1101,-442 1426,-587 1592,-670 165,-83 173,-104 158,-321 -14,-217 -49,-630 -112,-877 -64,-247 -156,-328 -302,-421 -146,-94 -348,-200 -489,-254 -141,-55 -222,-58 -735,-62 -514,-4 -1459,-7 -1983,-2 -524,6 -626,20 -2025,201 -1399,182 -4094,531 -5480,713 -1387,182 -1464,196 -1545,219 -81,23 -166,54 -182,70 -16,16 37,16 776,46zm11827 845c-104,47 -209,92 -314,137 -380,162 -765,316 -1148,471 -617,247 -1235,492 -1854,736 -700,276 -1402,551 -2106,818 -172,66 -346,131 -520,193 -104,36 -209,73 -316,102l0 1716c0,54 -9,105 -25,151 98,-42 210,-95 344,-163 382,-195 943,-516 1883,-1006 940,-491 2260,-1150 2977,-1538 718,-388 835,-505 918,-648 83,-143 132,-312 151,-539 11,-129 13,-276 10,-430zm-3623 3673c71,-230 107,-463 133,-697 -173,89 -346,179 -519,269 -385,201 -768,406 -1149,613 -221,120 -441,241 -664,357 94,154 216,299 362,402 213,152 476,215 720,201 243,-14 467,-106 661,-309 194,-202 358,-516 456,-836zm-894 254c109,0 198,89 198,199 0,109 -89,198 -198,198 -110,0 -199,-89 -199,-198 0,-110 89,-199 199,-199zm574 583l0 2259c-500,138 -1031,130 -1588,0l0 -2078c4,3 8,6 12,9 226,160 509,235 785,220 286,-17 529,-132 728,-340 22,-23 43,-46 63,-70zm-1995 2291c797,320 1629,271 2482,0l0 1007c-885,407 -1710,392 -2482,0l0 -1007zm3321 -1173c-151,77 -315,162 -488,252 54,2 109,-7 160,-23 104,-31 199,-94 275,-171 18,-19 36,-38 53,-58zm-958 494l-267 138 0 328c51,24 95,45 133,62 152,68 179,64 546,-115 366,-179 1074,-533 1566,-778 492,-244 769,-378 894,-450 125,-71 99,-80 -63,-105 -163,-26 -461,-68 -621,-89 -143,-18 -177,-18 -492,138 -66,98 -125,201 -183,295 -176,290 -362,556 -692,684 -216,83 -456,90 -668,-10 -56,-27 -107,-60 -153,-98zm2952 -117c7,-140 12,-383 17,-638 -15,11 -31,20 -47,29 -101,58 -209,110 -314,162 -195,97 -390,193 -585,290 -522,259 -1043,523 -1567,778 -76,38 -156,78 -236,111l0 83 0 354 0 159c126,47 241,55 319,51 112,-5 148,-35 532,-233 385,-199 1119,-566 1491,-763 372,-198 382,-226 390,-383zm-1833 -2016l2476 301c64,8 117,68 117,133l0 3764c0,65 -54,120 -117,104l-2476 -640c-63,-16 -117,-68 -117,-133l0 -217c39,-20 77,-40 116,-60 496,-256 998,-502 1491,-763 95,-51 199,-104 286,-166 59,-42 109,-89 136,-158 17,-47 20,-95 23,-144 8,-164 11,-331 14,-496 2,-102 17,-223 -26,-316 -34,-76 -144,-85 -218,-97 -207,-32 -416,-62 -624,-88 -38,-5 -77,-10 -116,-9 -74,1 -141,23 -208,51 -15,6 -30,12 -44,19 30,-34 62,-66 96,-96 59,-50 123,-91 195,-121 100,-43 163,-42 268,-42 165,0 256,-175 180,-312 -37,-66 -104,-103 -180,-103l-53 0c-544,0 -812,358 -1073,778 -53,86 -108,176 -166,263l-97 49 0 -1397c0,-65 53,-112 117,-104zm2029 653c80,0 146,76 146,169 0,94 -66,170 -146,170 -80,0 -145,-76 -145,-170 0,-93 65,-169 145,-169zm-1763 -226c80,-10 153,58 164,151 11,93 -45,176 -125,185 -80,9 -153,-59 -164,-151 -11,-93 45,-176 125,-185zm21 2746c80,-9 153,59 164,152 11,92 -45,175 -125,184 -80,10 -153,-58 -164,-151 -11,-93 45,-176 125,-185zm1741 370c80,-9 153,59 164,152 11,93 -45,176 -125,185 -80,9 -153,-59 -164,-152 -11,-93 45,-175 125,-185zm-1224 -5498c84,158 107,324 5,547 -335,727 -1885,1536 -1930,2702 -30,795 612,849 979,474 425,-434 587,-1255 1361,-1255l53 0c140,0 140,212 0,212 -110,0 -186,-2 -308,49 -596,252 -652,1122 -1298,1372 -389,150 -787,0 -933,-398 -106,-288 -76,-654 34,-961 398,-1108 1939,-1917 1896,-2497 -3,-52 -21,-101 -46,-148l4 -3c61,-31 122,-62 183,-94z"/> <path class="fil2" d="M7339 8440c263,0 476,251 476,561 0,310 -213,561 -476,561 -262,0 -475,-251 -475,-561 0,-310 213,-561 475,-561z"/> </g> </svg>