<svg width="275" height="275" viewBox="0 0 275 275" fill="none" xmlns="http://www.w3.org/2000/svg">
<path d="M137.576 274.013C130.232 274.013 122.857 273.427 115.672 272.262C83.9571 267.155 54.891 250.853 33.8391 226.361C12.559 201.603 0.838135 169.964 0.838135 137.275C0.838135 61.8734 62.1823 0.536865 137.576 0.536865C212.97 0.536865 274.322 61.881 274.322 137.275C274.322 170.474 262.281 202.485 240.407 227.411C218.747 252.109 188.988 268.191 156.611 272.704C150.347 273.579 143.939 274.021 137.576 274.021V274.013ZM137.576 9.66237C67.2131 9.66237 9.97125 66.9042 9.97125 137.267C9.97125 200.263 55.0356 253.25 117.126 263.243C129.646 265.26 142.752 265.405 155.348 263.647C217.963 254.925 265.181 200.59 265.181 137.267C265.181 66.9042 207.939 9.66237 137.569 9.66237H137.576Z" fill="#92429F"/>
<path d="M155.979 111.223V140.015H191.599L185.959 178.808H155.979V268.175C149.967 269.013 143.817 269.446 137.576 269.446C130.369 269.446 123.298 268.868 116.403 267.757V178.808H83.5538V140.015H116.403V104.791C116.403 82.9328 134.121 65.207 155.987 65.207V65.2298C156.048 65.2298 156.109 65.207 156.17 65.207H191.606V98.7484H168.454C161.566 98.7484 155.987 104.327 155.987 111.215L155.979 111.223Z" fill="#92429F"/>
</svg>
