<svg width="274" height="275" viewBox="0 0 274 275" fill="none" xmlns="http://www.w3.org/2000/svg">
<path d="M137.249 274.013C129.905 274.013 122.53 273.427 115.345 272.262C83.6305 267.155 54.5643 250.853 33.5125 226.361C12.2323 201.603 0.511475 169.964 0.511475 137.267C0.511475 61.8657 61.8556 0.529236 137.249 0.529236C212.643 0.529236 273.995 61.8734 273.995 137.267C273.995 170.466 261.955 202.478 240.081 227.404C218.42 252.101 188.661 268.183 156.284 272.696C150.021 273.571 143.612 274.013 137.249 274.013ZM137.249 9.66236C66.8864 9.66236 9.64459 66.9042 9.64459 137.267C9.64459 200.263 54.7089 253.25 116.799 263.243C129.319 265.26 142.425 265.405 155.021 263.647C217.636 254.925 264.854 200.59 264.854 137.267C264.854 66.9042 207.613 9.66236 137.242 9.66236H137.249Z" fill="#92429F"/>
<path d="M178.645 57.9309H95.8613C72.9904 57.9309 54.3893 76.532 54.3893 99.4029V175.139C54.3893 198.01 72.9904 216.611 95.8613 216.611H178.645C201.516 216.611 220.117 198.01 220.117 175.139V99.4029C220.117 76.532 201.516 57.9309 178.645 57.9309ZM69.0175 99.4029C69.0175 84.5996 81.058 72.5591 95.8613 72.5591H178.645C193.449 72.5591 205.489 84.5996 205.489 99.4029V175.139C205.489 189.943 193.449 201.983 178.645 201.983H95.8613C81.058 201.983 69.0175 189.943 69.0175 175.139V99.4029Z" fill="#92429F"/>
<path d="M137.25 175.847C158.522 175.847 175.829 158.54 175.829 137.267C175.829 115.995 158.522 98.6874 137.25 98.6874C115.977 98.6874 98.6697 115.995 98.6697 137.267C98.6697 158.54 115.977 175.847 137.25 175.847ZM137.25 113.323C150.454 113.323 161.194 124.062 161.194 137.267C161.194 150.472 150.454 161.211 137.25 161.211C124.045 161.211 113.306 150.472 113.306 137.267C113.306 124.062 124.045 113.323 137.25 113.323Z" fill="#92429F"/>
<path d="M179.406 104.921C185.137 104.921 189.803 100.255 189.803 94.5243C189.803 88.7932 185.137 84.1277 179.406 84.1277C173.675 84.1277 169.01 88.7932 169.01 94.5243C169.01 100.255 173.675 104.921 179.406 104.921Z" fill="#92429F"/>
</svg>
