<?xml version="1.0" standalone="no"?>
<!DOCTYPE svg PUBLIC "-//W3C//DTD SVG 20010904//EN"
 "http://www.w3.org/TR/2001/REC-SVG-20010904/DTD/svg10.dtd">
<svg version="1.0" xmlns="http://www.w3.org/2000/svg"
 width="254.000000pt" height="110.000000pt" viewBox="0 0 254.000000 110.000000"
 preserveAspectRatio="xMidYMid meet">

<g transform="translate(0.000000,110.000000) scale(0.100000,-0.100000)"
fill="#000000" stroke="none">
<path d="M685 871 c-43 -19 -100 -78 -116 -118 -14 -39 -12 -293 4 -293 24 0
77 40 81 62 3 13 7 65 8 116 l3 94 37 34 c33 30 44 34 92 34 44 0 60 5 85 26
17 14 31 34 31 45 0 17 -8 19 -92 19 -68 0 -104 -5 -133 -19z"/>
<path d="M1057 877 c-52 -17 -103 -60 -128 -109 -30 -58 -24 -150 14 -206 86
-130 283 -131 373 -1 26 37 29 51 29 115 0 64 -3 77 -30 116 -55 78 -167 115
-258 85z m142 -102 c62 -53 62 -147 0 -199 -63 -53 -155 -20 -180 63 -23 78
34 161 111 161 27 0 48 -8 69 -25z"/>
<path d="M1517 877 c-51 -17 -103 -60 -127 -107 -17 -33 -20 -59 -20 -175 0
-148 1 -150 57 -115 38 23 41 35 45 158 l3 94 37 34 c46 42 100 46 143 12 41
-32 55 -76 55 -172 0 -74 3 -88 23 -110 12 -14 35 -28 50 -32 l29 -7 -4 146
c-3 144 -3 146 -33 189 -55 78 -167 115 -258 85z"/>
<path d="M1830 710 l0 -180 28 -29 c15 -17 39 -33 55 -37 l27 -6 0 176 c0 193
-7 222 -55 244 -56 26 -55 27 -55 -168z"/>
<path d="M2111 877 c-47 -18 -105 -69 -125 -110 -12 -27 -16 -66 -16 -171 0
-142 2 -146 43 -125 47 24 57 49 57 142 0 61 5 100 16 123 32 67 120 85 174
37 37 -33 49 -79 50 -184 0 -65 3 -78 23 -97 12 -11 35 -24 50 -28 l29 -7 -4
145 c-3 141 -4 146 -32 187 -40 58 -102 92 -173 97 -33 2 -73 -2 -92 -9z"/>
<path d="M149 867 c-58 -22 -96 -54 -119 -102 -19 -40 -21 -50 -10 -76 25 -60
95 -72 140 -24 20 21 22 31 16 74 l-7 50 44 25 c26 16 60 26 83 26 l39 1 -28
15 c-40 21 -116 27 -158 11z"/>
<path d="M6 635 c9 -51 25 -83 60 -119 42 -42 80 -57 140 -59 63 -1 89 17 100
70 5 27 1 37 -24 63 -37 37 -70 38 -110 5 -17 -14 -35 -25 -41 -25 -27 0 -93
43 -112 73 l-20 32 7 -40z"/>
<path d="M944 415 c-4 -9 -2 -21 4 -27 15 -15 44 -1 40 19 -4 23 -36 29 -44 8z"/>
<path d="M780 403 c-54 -20 -68 -87 -25 -121 13 -11 38 -25 54 -32 34 -14 46
-37 30 -56 -14 -17 -62 -18 -90 -3 -18 9 -20 8 -17 -12 7 -54 137 -47 156 9
14 41 -3 78 -46 97 -58 27 -73 44 -61 67 9 17 18 20 55 15 37 -4 44 -2 44 13
0 27 -55 39 -100 23z"/>
<path d="M1237 373 c-4 -3 -7 -15 -7 -25 0 -10 -7 -18 -15 -18 -8 0 -15 -9
-15 -20 0 -11 7 -20 15 -20 12 0 15 -13 15 -58 0 -66 21 -96 62 -90 29 4 38
38 10 38 -24 0 -32 18 -32 71 0 35 3 39 25 39 18 0 25 5 25 20 0 15 -7 20 -25
20 -20 0 -25 5 -25 25 0 24 -18 34 -33 18z"/>
<path d="M940 235 c0 -95 0 -95 25 -95 25 0 25 0 25 95 0 95 0 95 -25 95 -25
0 -25 0 -25 -95z"/>
<path d="M1070 317 c-18 -9 -25 -21 -25 -42 0 -25 6 -33 43 -50 52 -24 49 -40
-6 -40 -33 0 -42 -4 -42 -17 0 -21 39 -33 77 -23 40 10 53 24 53 57 0 25 -6
32 -45 49 -51 23 -50 43 1 37 27 -3 34 0 34 13 0 29 -47 38 -90 16z"/>
<path d="M1379 301 c-54 -54 -34 -139 37 -157 34 -9 78 6 82 28 3 13 -3 15
-36 11 -28 -4 -43 -1 -55 12 -29 28 -19 35 48 35 63 0 65 1 65 25 0 14 -11 37
-25 50 -34 35 -78 33 -116 -4z m95 -26 c4 -12 -4 -15 -41 -15 -39 0 -44 2 -33
15 7 8 25 15 40 15 16 0 30 -7 34 -15z"/>
<path d="M1560 235 c0 -94 0 -95 25 -95 23 0 24 3 27 66 3 70 18 94 52 81 13
-5 16 -21 16 -77 0 -68 1 -70 25 -70 24 0 25 2 25 63 0 65 11 87 42 87 25 0
38 -31 38 -94 0 -49 2 -56 20 -56 18 0 20 7 20 73 0 107 -37 144 -98 101 -21
-15 -25 -15 -41 0 -22 20 -50 20 -79 0 -20 -14 -22 -14 -22 0 0 10 -9 16 -25
16 -25 0 -25 0 -25 -95z"/>
<path d="M1933 320 c-41 -17 -27 -36 24 -36 28 1 48 -4 50 -11 3 -9 -6 -13
-29 -13 -50 0 -78 -24 -78 -66 0 -27 5 -37 26 -46 21 -10 31 -9 55 4 24 14 29
15 29 3 0 -8 9 -15 20 -15 18 0 20 7 20 79 0 71 -2 82 -22 95 -25 18 -61 20
-95 6z m66 -126 c-17 -21 -54 -14 -54 11 0 14 9 21 30 25 34 6 45 -11 24 -36z"/>
<path d="M2133 318 c-49 -23 -39 -72 18 -95 56 -22 52 -47 -6 -41 -38 5 -45 3
-45 -12 0 -36 77 -40 117 -6 24 21 26 26 15 50 -6 14 -27 32 -47 40 -48 20
-46 39 5 34 32 -3 40 0 40 13 0 29 -53 38 -97 17z"/>
</g>
</svg>
