<svg width="275" height="275" viewBox="0 0 275 275" fill="none" xmlns="http://www.w3.org/2000/svg">
<path d="M137.576 274.314C130.224 274.314 122.857 273.728 115.672 272.571C83.9571 267.464 54.891 251.161 33.8391 226.669C12.559 201.911 0.838135 170.273 0.838135 137.576C0.838135 62.1744 62.1823 0.837891 137.576 0.837891C212.97 0.837891 274.322 62.182 274.322 137.576C274.322 170.775 262.281 202.786 240.407 227.712C218.747 252.41 188.988 268.492 156.611 273.005C150.347 273.88 143.939 274.322 137.576 274.322V274.314ZM137.576 9.96339C67.2131 9.96339 9.97125 67.2053 9.97125 137.568C9.97125 200.572 55.0356 253.551 117.126 263.545C129.638 265.561 142.752 265.706 155.348 263.948C217.963 255.226 265.181 200.891 265.181 137.568C265.181 67.2053 207.939 9.96339 137.569 9.96339H137.576Z" fill="#92429F"/>
<path d="M162.137 176.704C127.895 176.696 100.031 148.832 100.024 114.598C100.039 105.922 107.094 98.859 115.763 98.859C116.654 98.859 117.537 98.9351 118.374 99.0873C120.231 99.3917 121.989 100.023 123.618 100.967C123.854 101.104 124.013 101.333 124.052 101.599L127.667 124.409C127.712 124.675 127.629 124.942 127.454 125.139C125.452 127.354 122.902 128.945 120.071 129.744L118.709 130.132L119.226 131.457C123.899 143.337 133.398 152.843 145.286 157.516L146.61 158.034L146.991 156.664C147.79 153.825 149.381 151.276 151.595 149.281C151.755 149.137 151.968 149.053 152.189 149.053C152.235 149.053 152.288 149.053 152.334 149.068L175.136 152.684C175.41 152.729 175.631 152.881 175.775 153.117C176.712 154.746 177.343 156.512 177.655 158.361C177.8 159.191 177.876 160.059 177.876 160.972C177.876 169.641 170.813 176.696 162.137 176.711V176.704Z" fill="#92429F"/>
<path d="M222.857 130.064C221.007 109.195 211.448 89.84 195.937 75.5695C180.334 61.2077 160.082 53.2999 138.908 53.2999C92.4357 53.2999 54.6246 91.1111 54.6246 137.583C54.6246 153.178 58.9248 168.377 67.0685 181.613L48.9088 221.821L107.072 215.626C117.186 219.766 127.895 221.867 138.908 221.867C141.808 221.867 144.776 221.715 147.752 221.41C150.378 221.129 153.026 220.718 155.637 220.192C194.559 212.33 222.971 177.784 223.192 138.033V137.583C223.192 135.049 223.077 132.522 222.849 130.071L222.857 130.064ZM109.302 197.976L77.1225 201.401L86.7351 180.113L84.8172 177.533C84.6726 177.343 84.5356 177.153 84.3757 176.94C76.0342 165.424 71.6274 151.816 71.6274 137.576C71.6274 100.473 101.812 70.2952 138.908 70.2952C173.667 70.2952 203.122 97.4129 205.96 132.027C206.113 133.885 206.189 135.749 206.189 137.583C206.189 138.109 206.181 138.626 206.166 139.174C205.45 170.212 183.767 196.568 153.437 203.281C151.124 203.799 148.749 204.187 146.382 204.446C143.924 204.727 141.404 204.864 138.9 204.864C129.988 204.864 121.327 203.136 113.137 199.727C112.232 199.361 111.341 198.973 110.504 198.57L109.286 197.984L109.302 197.976Z" fill="#92429F"/>
</svg>
